# xmcd CD database file
#
# Track frame offsets:
#	150
#	20573
#	54862
#	72338
#	90318
#	108007
#	148715
#	167390
#	183410
#	205406
#
# Disc length: 3078 seconds
#
# Revision: 0
# Processed by: cddbd v1.5.2PL0 Copyright (c) Steve Scherf et al.
# Submitted via: CDex 1.51
#
DISCID=7c0c040a
DTITLE=Gerry Richardson - This is what we do
DYEAR=2006
DGENRE=Jazz
TTITLE0=Going Out
TTITLE1=Another Dark One
TTITLE2=Getting There
TTITLE3=Blues for Red
TTITLE4=Springtime in the City
TTITLE5=Global Village Idiot
TTITLE6=Big Jazz Club
TTITLE7=Think I'll Lay Waste to Myself Tonight
TTITLE8=Authunm in the Barrio
TTITLE9=Another Dark One remix
EXTD=YEAR: 2006
EXTT0=
EXTT1=
EXTT2=
EXTT3=
EXTT4=
EXTT5=
EXTT6=
EXTT7=
EXTT8=
EXTT9=
PLAYORDER=
